<svg width="544" height="465" viewBox="0 0 544 465" fill="none" xmlns="http://www.w3.org/2000/svg">
<rect width="544" height="465" fill="#AB11B4"/>
<g clip-path="url(#clip0_0_1)">
<path d="M373.5 176.817H366.417V125.687H334.071L261.946 53.563L218.275 97.234L192.617 71.574L138.503 125.688H96V321.938H366.417V243.068H373.5V176.817ZM312.858 125.688H211.034L261.946 74.776L312.858 125.688ZM192.617 92.787L207.67 107.84L189.821 125.688H159.716L192.617 92.787ZM351.417 306.938H111V140.688H351.417V176.818H253.5V243.068H351.417V306.938ZM358.5 228.067H268.5V191.817H358.5V228.067Z" fill="#FCF9F9"/>
<path d="M300.166 202.442H279.333V217.442H300.166V202.442Z" fill="#FCF9F9"/>
</g>
<defs>
<clipPath id="clip0_0_1">
<rect width="277.5" height="277.5" fill="white" transform="translate(96 49)"/>
</clipPath>
</defs>
</svg>
