<svg width="218" height="283" viewBox="0 0 218 283" fill="none" xmlns="http://www.w3.org/2000/svg">
<path d="M207.374 64.3173H161.145C175.077 50.6908 183.742 31.6726 183.742 10.659C183.742 4.77221 178.985 0 173.117 0C145.923 0 122.078 14.6455 109 36.4844C95.9218 14.6455 72.0769 0 44.884 0C39.0155 0 34.2582 4.77221 34.2582 10.659C34.2582 31.6726 42.9246 50.6908 56.8553 64.3173H10.6258C4.75732 64.3173 0 69.0895 0 74.9763V272.341C0 278.228 4.75732 283 10.6258 283H207.374C213.243 283 218 278.228 218 272.341V74.9763C218 69.0895 213.243 64.3173 207.374 64.3173V64.3173ZM196.748 162.999H119.626V85.6353H196.748V162.999ZM161.139 22.6745C156.57 42.6313 140.873 58.3781 120.977 62.9614C125.547 43.0041 141.245 27.2573 161.139 22.6745ZM97.0226 62.9608C77.1281 58.3774 61.4304 42.6307 56.8614 22.6739C76.7559 27.2573 92.4535 43.0041 97.0226 62.9608ZM98.3742 85.6353V162.999H21.2516V85.6353H98.3742V85.6353ZM21.2516 184.317H98.3742V261.682H21.2516V184.317ZM119.626 261.681V184.317H196.748V261.682H119.626V261.681Z" fill="white"/>
</svg>
