<svg width="321" height="339" viewBox="0 0 321 339" fill="none" xmlns="http://www.w3.org/2000/svg">
<g clip-path="url(#clip0_1_4)">
<path d="M249.807 15.3987H199.328L197.275 5.75361C196.571 2.3929 193.716 0 190.425 0H133.564C130.273 0 127.43 2.3929 126.714 5.75361L124.672 15.3987H74.1832C55.7143 15.3987 40.6976 31.1163 40.6976 50.4402V303.959C40.6976 323.283 55.7143 339.001 74.1832 339.001H249.807C268.276 339.001 283.304 323.283 283.304 303.959V50.4402C283.303 31.1163 268.275 15.3987 249.807 15.3987ZM261.414 303.958C261.414 310.652 256.209 316.098 249.807 316.098H74.1825C67.7908 316.098 62.5857 310.652 62.5857 303.958V50.4402C62.5857 43.7469 67.7908 38.3015 74.1825 38.3015H119.809L118.644 43.7807C118.173 45.9554 118.687 48.2367 120.012 49.9707C121.347 51.7098 123.368 52.7215 125.494 52.7215H198.504C200.631 52.7215 202.651 51.7098 203.976 49.9707C205.313 48.2317 205.825 45.9562 205.355 43.7807L204.191 38.3015H249.807C256.209 38.3015 261.414 43.7476 261.414 50.4402V303.958Z" fill="white"/>
<path d="M117.575 135.686H147.341L140.266 130.631C130.283 123.503 127.718 109.249 134.537 98.8051C141.346 88.3716 154.973 85.6712 164.955 92.811L166.121 93.6441V84.905C166.121 79.2407 161.728 74.645 156.319 74.645H117.575C112.168 74.645 107.775 79.2414 107.775 84.905V125.426C107.775 131.091 112.168 135.686 117.575 135.686Z" fill="white"/>
<path d="M208.712 79.4366L174.404 113.421L158.778 102.267C153.808 98.6935 146.988 100.047 143.569 105.264C140.159 110.485 141.442 117.609 146.444 121.177L169.349 137.542C171.219 138.885 173.367 139.538 175.516 139.538C178.241 139.538 180.945 138.477 183.04 136.402L223.761 96.0659C228.154 91.7215 228.335 84.4694 224.188 79.8787C220.02 75.2881 213.104 75.0922 208.712 79.4366Z" fill="white"/>
<path d="M117.575 214.352H147.352L140.266 209.292C130.283 202.162 127.718 187.91 134.537 177.465C141.346 167.025 154.973 164.325 164.955 171.471L166.121 172.304V163.565C166.121 157.902 161.728 153.305 156.319 153.305H117.575C112.168 153.305 107.775 157.902 107.775 163.565V204.092C107.775 209.755 112.168 214.352 117.575 214.352Z" fill="white"/>
<path d="M208.712 158.102L174.404 192.081L158.778 180.926C153.808 177.347 146.988 178.695 143.569 183.923C140.159 189.146 141.442 196.269 146.444 199.837L169.349 216.203C171.219 217.545 173.367 218.199 175.516 218.199C178.241 218.199 180.945 217.136 183.04 215.062L223.761 174.731C228.154 170.387 228.335 163.14 224.188 158.544C220.02 153.953 213.104 153.763 208.712 158.102Z" fill="white"/>
<path d="M156.319 231.97H117.575C112.168 231.97 107.775 236.566 107.775 242.23V282.751C107.775 288.414 112.168 293.011 117.575 293.011H156.319C161.728 293.011 166.121 288.414 166.121 282.751V242.23C166.121 236.566 161.728 231.97 156.319 231.97Z" fill="white"/>
</g>
<defs>
<clipPath id="clip0_1_4">
<rect width="324" height="339" fill="white"/>
</clipPath>
</defs>
</svg>
