<svg width="670" height="512" viewBox="0 0 670 512" fill="none" xmlns="http://www.w3.org/2000/svg">
<rect width="670" height="512" fill="#AB11B4"/>
<path d="M340.4 251.5C311.5 251.5 287.9 275 287.9 304C287.9 333 311.4 356.5 340.4 356.5C369.3 356.5 392.9 333 392.9 304C392.9 275 369.3 251.5 340.4 251.5ZM340.4 331.9C325 331.9 312.4 319.4 312.4 303.9C312.4 288.4 324.9 275.9 340.4 275.9C355.8 275.9 368.4 288.4 368.4 303.9C368.4 319.4 355.8 331.9 340.4 331.9Z" fill="white"/>
<path d="M540.1 303.9C540.1 275 516.6 251.4 487.6 251.4C458.7 251.4 435.1 274.9 435.1 303.9C435.1 332.9 458.6 356.4 487.6 356.4C516.6 356.4 540.1 332.8 540.1 303.9ZM487.6 331.9C472.2 331.9 459.6 319.4 459.6 303.9C459.6 288.4 472.1 275.9 487.6 275.9C503 275.9 515.6 288.4 515.6 303.9C515.6 319.4 503.1 331.9 487.6 331.9Z" fill="white"/>
<path d="M625.8 173.6C617.4 123.6 576.1 86.6 525.2 83.5L523.1 83.1C522.4 83 521.7 82.9 521 82.9H309.5C256.2 82.9 211.1 121 202.3 173.3L170 346.4C169 351.1 168.5 355.8 168.5 360.5C168.5 398.3 199.2 429 237 429C259.8 429 281.1 417.7 293.6 399.1L309.2 377.5C313.2 372 311.9 364.4 306.4 360.4C300.9 356.4 293.3 357.7 289.3 363.2L273.5 385.1C265.3 397.3 251.6 404.6 237 404.6C212.7 404.6 193 384.8 193 360.6C193 357.6 193.3 354.5 194 351.2L226.3 177.7C233.1 137 268.1 107.5 309.4 107.5H520L521.7 107.8C522.2 107.9 522.6 107.9 523.1 108C562.1 110.1 595.1 139.5 601.6 177.9L634 351.4C634.6 354.4 634.9 357.5 634.9 360.5C634.9 384.8 615.1 404.5 590.9 404.5C576.2 404.5 562.6 397.2 554.1 384.7L537.3 361.5C533.3 356 525.7 354.8 520.2 358.7C514.7 362.7 513.5 370.3 517.4 375.8L533.9 398.7C546.7 417.6 567.9 428.9 590.7 428.9C628.5 428.9 659.2 398.2 659.2 360.4C659.2 355.7 658.7 350.9 657.8 346.5L625.8 173.6Z" fill="white"/>
<path d="M477.5 198.4C486.668 198.4 494.1 190.968 494.1 181.8C494.1 172.632 486.668 165.2 477.5 165.2C468.332 165.2 460.9 172.632 460.9 181.8C460.9 190.968 468.332 198.4 477.5 198.4Z" fill="white"/>
<path d="M545.4 198.4C554.568 198.4 562 190.968 562 181.8C562 172.632 554.568 165.2 545.4 165.2C536.232 165.2 528.8 172.632 528.8 181.8C528.8 190.968 536.232 198.4 545.4 198.4Z" fill="white"/>
<path d="M317.7 132.6C310.9 132.6 305.4 138.1 305.4 144.9V167H283.3C276.5 167 271 172.5 271 179.3C271 186.1 276.5 191.6 283.3 191.6H305.4V213.7C305.4 220.5 310.9 226 317.7 226C324.5 226 330 220.5 330 213.7V191.6H352.1C358.9 191.6 364.4 186.1 364.4 179.3C364.4 172.5 358.9 167 352.1 167H330V144.9C330 138.1 324.5 132.6 317.7 132.6Z" fill="white"/>
<path d="M511.4 232.3C520.568 232.3 528 224.868 528 215.7C528 206.532 520.568 199.1 511.4 199.1C502.232 199.1 494.8 206.532 494.8 215.7C494.8 224.868 502.232 232.3 511.4 232.3Z" fill="white"/>
<path d="M511.4 164.4C520.568 164.4 528 156.968 528 147.8C528 138.632 520.568 131.2 511.4 131.2C502.232 131.2 494.8 138.632 494.8 147.8C494.8 156.968 502.232 164.4 511.4 164.4Z" fill="white"/>
</svg>
