<svg width="544" height="465" viewBox="0 0 544 465" fill="none" xmlns="http://www.w3.org/2000/svg">
<g clip-path="url(#clip0_2_124)">
<path d="M544 0H0V465H544V0Z" fill="#AB11B4"/>
<path d="M458.696 96.0532H441.657V117.835H458.696V96.0532Z" fill="#FCFCFF"/>
<path d="M458.697 127.365H441.655C436.166 127.365 431.714 123.098 431.714 117.835V96.0538C431.714 90.7907 436.165 86.5243 441.655 86.5243H458.697C464.186 86.5243 468.638 90.7907 468.638 96.0538V117.835C468.638 123.098 464.187 127.365 458.697 127.365Z" fill="#FAF9FC"/>
<path d="M450.177 363.489C433.732 363.489 420.354 350.665 420.354 334.901V112.389C420.354 107.126 424.805 102.86 430.295 102.86H470.059C475.549 102.86 480.001 107.126 480.001 112.389V161.398C480.001 166.661 475.549 170.928 470.059 170.928C464.569 170.928 460.118 166.661 460.118 161.398V121.919H440.235V334.901C440.235 340.156 444.695 344.431 450.177 344.431C455.658 344.431 460.118 340.156 460.118 334.901V202.102C460.118 196.839 464.569 192.572 470.059 192.572C475.549 192.572 480 196.839 480 202.102V334.901C480 350.665 466.621 363.489 450.177 363.489Z" fill="#FAF9FC"/>
<path d="M450.177 380.507C444.688 380.507 440.235 376.24 440.235 370.977V353.961C440.235 348.698 444.687 344.431 450.177 344.431C455.667 344.431 460.118 348.698 460.118 353.961V370.977C460.117 376.24 455.666 380.507 450.177 380.507Z" fill="#FAF9FC"/>
<path d="M470.059 112.389H430.294V161.399H470.059V112.389Z" fill="#FCFCFF"/>
<path d="M470.059 170.928H430.294C424.805 170.928 420.353 166.661 420.353 161.398V112.389C420.353 107.126 424.804 102.86 430.294 102.86H470.059C475.548 102.86 480 107.126 480 112.389V161.398C480 166.661 475.549 170.928 470.059 170.928ZM440.235 151.869H460.118V121.919H440.235V151.869Z" fill="#FAF9FC"/>
<path d="M232.44 82.7388V141.264C232.44 149.744 225.269 156.62 216.421 156.62H153.903C152.891 156.62 152.114 155.764 152.24 154.802C153.29 146.824 157.077 139.347 163.07 133.61L206.8 91.6919C213.197 85.5511 221.652 81.8289 230.609 81.1397C231.592 81.0644 232.44 81.7934 232.44 82.7388Z" fill="#FCFCFF"/>
<path d="M216.421 166.149H153.903C150.572 166.149 147.398 164.775 145.195 162.381C142.987 159.982 141.96 156.786 142.377 153.612C143.703 143.532 148.557 134.035 156.047 126.865L199.77 84.9524C207.802 77.2422 218.474 72.5126 229.815 71.6406C236.65 71.1134 242.382 76.3031 242.382 82.7388V141.264C242.382 154.985 230.736 166.149 216.421 166.149ZM164.98 147.09H216.421C219.772 147.09 222.499 144.475 222.499 141.263V92.7708C219.289 94.1061 216.342 96.0165 213.834 98.4237L170.101 140.348C168.032 142.328 166.306 144.611 164.98 147.09Z" fill="#FAF9FC"/>
<path d="M351.36 380.507H183.674C160.696 380.507 142 362.587 142 340.56V159.359C142 158.259 142.046 157.104 142.135 155.926C142.998 144.94 147.938 134.626 156.047 126.865L199.77 84.953C208.407 76.6613 219.9 71.8893 232.126 71.5165C232.151 71.5165 232.207 71.5146 232.232 71.5134C232.705 71.5026 233.189 71.4925 233.661 71.4925H351.359C374.337 71.4925 393.032 89.4125 393.032 111.44V340.559C393.034 362.587 374.339 380.507 351.36 380.507ZM233.663 90.5515C233.348 90.5515 233.024 90.5604 232.71 90.568C225.606 90.7844 218.888 93.5745 213.835 98.425L170.101 140.348C165.355 144.889 162.467 150.921 161.963 157.334C161.91 158.031 161.883 158.719 161.883 159.359V340.559C161.883 352.077 171.658 361.447 183.674 361.447H351.361C363.377 361.447 373.152 352.077 373.152 340.559V111.441C373.152 99.9229 363.377 90.5528 351.361 90.5528H233.663V90.5515Z" fill="#FAF9FC"/>
<path d="M201.647 371.37C196.158 371.37 191.706 367.104 191.706 361.841V197.384C191.706 192.121 196.157 187.855 201.647 187.855C207.137 187.855 211.588 192.121 211.588 197.384V361.841C211.588 367.104 207.136 371.37 201.647 371.37Z" fill="#FAF9FC"/>
</g>
<defs>
<clipPath id="clip0_2_124">
<rect width="544" height="465" fill="white"/>
</clipPath>
</defs>
</svg>
